<?xml version="1.0" encoding="UTF-8"?>
<svg id="Layer_2" data-name="Layer 2" xmlns="http://www.w3.org/2000/svg" viewBox="0 0 173.94 60.18">
  <defs>
    <style>
      .cls-1 {
        stroke-linecap: round;
      }

      .cls-1, .cls-2 {
        fill: none;
        stroke: #211e1f;
        stroke-miterlimit: 10;
      }

      .cls-3 {
        fill: #6fbf55;
      }

      .cls-4 {
        fill: #231f20;
        stroke: #231f20;
        stroke-linejoin: round;
        stroke-width: .5px;
      }
    </style>
  </defs>
  <g>
    <path class="cls-4" d="M7.38,20.01c0-7.8,4.94-13.76,11.48-13.76,4.78,0,8.21,2.45,9.72,6.98l-.82,.33c-1.43-4.33-4.49-6.53-8.94-6.53-5.96,0-10.54,5.6-10.54,12.99,0,6.82,3.84,12.99,11.48,12.99,2.12,0,4.21-.49,5.92-1.35,1.63-.82,2.08-1.51,2.08-3.39v-8.33h.9v10.66c-1.72,1.92-5.39,3.19-8.86,3.19-8.25,0-12.42-6.58-12.42-13.76Z"/>
    <path class="cls-4" d="M35.68,6.53h5.96c6.53,0,10.05,2.16,10.05,6.86,0,3.88-2.37,6.09-6.74,6.58v.08c3.76,.16,5.84,1.47,5.84,6.09v3.19c0,1.92,.41,3.23,1.1,4.17h-.98c-.65-.86-1.02-2.29-1.02-4.21v-2.98c0-4.37-1.63-5.8-6.21-5.8h-7.11v12.99h-.9V6.53Zm.9,.78v12.42h5.02c6.21,0,9.19-2.12,9.19-6.29s-2.98-6.13-9.23-6.13h-4.98Z"/>
    <path class="cls-4" d="M58.39,6.53h13.97v.78h-13.07v11.8h12.13v.78h-12.13v12.82h13.07v.78h-13.97V6.53Z"/>
    <path class="cls-4" d="M78.03,6.53h13.97v.78h-13.07v11.8h12.13v.78h-12.13v12.82h13.07v.78h-13.97V6.53Z"/>
    <path class="cls-4" d="M97.68,6.53h.94l15.89,25.53V6.53h.86v26.96h-.94l-15.89-25.53v25.53h-.86V6.53Z"/>
    <path class="cls-4" d="M121.16,28.06l.78-.41c.9,3.51,3.84,5.35,7.88,5.35,4.49,0,7.15-2.7,7.15-6.21,0-3.02-1.8-5.15-5.47-6l-3.55-.82c-3.92-.9-5.96-3.23-5.96-6.7,0-3.88,3.1-7.02,7.76-7.02,4,0,6.9,2,7.96,5.39l-.78,.41c-.98-3.31-3.68-5.02-7.19-5.02-4.29,0-6.86,2.78-6.86,6.21,0,3.23,1.88,5.15,5.39,5.96l3.51,.82c4,.94,6.08,3.35,6.08,6.7,0,4-3.14,7.07-8,7.07-4.49,0-7.68-2.04-8.7-5.72Z"/>
  </g>
  <g>
    <path class="cls-4" d="M29.01,51.11l.54-.29c.63,2.46,2.68,3.74,5.51,3.74,3.14,0,5-1.89,5-4.34,0-2.11-1.26-3.6-3.83-4.2l-2.49-.57c-2.74-.63-4.17-2.26-4.17-4.68,0-2.71,2.17-4.91,5.43-4.91,2.8,0,4.83,1.4,5.57,3.77l-.54,.29c-.69-2.31-2.57-3.51-5.03-3.51-3,0-4.8,1.94-4.8,4.34,0,2.26,1.31,3.6,3.77,4.17l2.46,.57c2.8,.66,4.26,2.34,4.26,4.68,0,2.8-2.2,4.94-5.6,4.94-3.14,0-5.37-1.43-6.08-4Z"/>
    <path class="cls-4" d="M44,45.48c0-5.48,3.49-9.63,8.03-9.63,3.31,0,5.71,1.69,6.8,4.88l-.57,.23c-1-3.06-3.14-4.57-6.26-4.57-4.14,0-7.37,3.89-7.37,9.08s3.23,9.08,7.37,9.08c3.11,0,5.26-1.51,6.26-4.57l.57,.23c-1.09,3.2-3.49,4.88-6.8,4.88-4.54,0-8.03-4.14-8.03-9.63Z"/>
    <path class="cls-4" d="M63.03,36.05h9.77v.54h-9.14v8.26h8.48v.54h-8.48v8.97h9.14v.54h-9.77v-18.85Z"/>
    <path class="cls-4" d="M76.76,36.05h.66l11.11,17.85v-17.85h.6v18.85h-.66l-11.11-17.85v17.85h-.6v-18.85Z"/>
    <path class="cls-4" d="M98.47,36.59h-6.37v-.54h13.37v.54h-6.37v18.31h-.63v-18.31Z"/>
    <path class="cls-4" d="M106.64,51.11l.54-.29c.63,2.46,2.69,3.74,5.51,3.74,3.14,0,5-1.89,5-4.34,0-2.11-1.26-3.6-3.83-4.2l-2.49-.57c-2.74-.63-4.17-2.26-4.17-4.68,0-2.71,2.17-4.91,5.43-4.91,2.8,0,4.83,1.4,5.57,3.77l-.54,.29c-.69-2.31-2.57-3.51-5.03-3.51-3,0-4.8,1.94-4.8,4.34,0,2.26,1.31,3.6,3.77,4.17l2.46,.57c2.8,.66,4.26,2.34,4.26,4.68,0,2.8-2.2,4.94-5.6,4.94-3.14,0-5.37-1.43-6.08-4Z"/>
  </g>
  <path class="cls-3" d="M156.7,42.03c-2.41,.42-3.68,2.5-5.48,3.18s-5.21,1.22-7.75-2.65c-1.39,5.71,4.21,10.96,9.23,10.96,5.34,0,9.44-3.9,10-8.59,.03-.25,.02-.42,0-.66-1.75-2.23-4.42-2.52-6.01-2.24Z"/>
  <g>
    <path class="cls-1" d="M152.99,23.11c-2.69,0-4.87-2.18-4.87-4.87"/>
    <path class="cls-1" d="M148.13,18.25c0-.37,.04-.73,.12-1.08"/>
    <path class="cls-1" d="M148.25,17.17c.3-1.88,1.31-6.01,4.74-10.64"/>
    <line class="cls-2" x1="150.56" y1="26.17" x2="150.56" y2="33.2"/>
    <path class="cls-1" d="M152.99,23.11c2.69,0,4.87-2.18,4.87-4.87"/>
    <path class="cls-1" d="M157.86,18.25c0-.37-.04-.73-.12-1.08"/>
    <path class="cls-1" d="M157.73,17.17c-.3-1.88-1.31-6.01-4.74-10.64"/>
    <line class="cls-2" x1="155.42" y1="26.17" x2="155.42" y2="33.2"/>
    <path class="cls-1" d="M155.42,33.2c4.87,1.11,8.51,5.47,8.51,10.68,0,6.05-4.9,10.95-10.95,10.95s-10.95-4.9-10.95-10.95c0-5.21,3.64-9.57,8.51-10.67"/>
    <path class="cls-1" d="M144.56,22.22s2.34,4.23,8.43,4.23"/>
    <path class="cls-1" d="M161.42,22.22s-2.21,4.23-8.43,4.23"/>
  </g>
</svg>