<?xml version="1.0" encoding="UTF-8"?>
<svg id="Layer_2" data-name="Layer 2" xmlns="http://www.w3.org/2000/svg" viewBox="0 0 35.87 56.06">
  <defs>
    <style>
      .cls-1, .cls-2 {
        fill: none;
        stroke: #221f1f;
        stroke-miterlimit: 10;
      }

      .cls-3 {
        fill: #6fbf55;
      }

      .cls-2 {
        stroke-linecap: round;
      }
    </style>
  </defs>
  <g>
    <path class="cls-2" d="M17.85,20.71c-2.69,0-4.87-2.18-4.87-4.87"/>
    <path class="cls-2" d="M12.98,15.85c0-.37,.04-.73,.12-1.08"/>
    <path class="cls-2" d="M13.11,14.77c.3-1.88,1.31-6.01,4.74-10.64"/>
    <line class="cls-1" x1="15.42" y1="23.77" x2="15.42" y2="30.8"/>
    <path class="cls-2" d="M17.85,20.71c2.69,0,4.87-2.18,4.87-4.87"/>
    <path class="cls-2" d="M22.71,15.85c0-.37-.04-.73-.12-1.08"/>
    <path class="cls-2" d="M22.59,14.77c-.3-1.88-1.31-6.01-4.74-10.64"/>
    <line class="cls-1" x1="20.28" y1="23.77" x2="20.28" y2="30.8"/>
    <path class="cls-2" d="M20.28,30.8c4.87,1.11,8.51,5.47,8.51,10.68,0,6.05-4.9,10.95-10.95,10.95s-10.95-4.9-10.95-10.95c0-5.21,3.64-9.57,8.51-10.67"/>
    <path class="cls-2" d="M9.42,19.82s2.34,4.23,8.43,4.23"/>
    <path class="cls-2" d="M26.27,19.82s-2.21,4.23-8.43,4.23"/>
  </g>
  <path class="cls-3" d="M21.56,39.82c-2.41,.42-3.68,2.5-5.48,3.18s-5.21,1.22-7.75-2.65c-1.39,5.71,4.21,10.96,9.23,10.96,5.34,0,9.44-3.9,10-8.59,.03-.25,.02-.42,0-.66-1.75-2.23-4.42-2.52-6.01-2.24Z"/>
</svg>