<?xml version="1.0" encoding="UTF-8"?>
<svg id="Layer_1" data-name="Layer 1" xmlns="http://www.w3.org/2000/svg" viewBox="0 0 915.1 822.19">
  <defs>
    <style>
      .cls-1 {
        fill: #1b1b1b;
      }
    </style>
  </defs>
  <path class="cls-1" d="M625.22,289.05c-.17-1.03-.38-2.09-.6-3.17-5.18-26.64-19.49-52.46-36.83-75.25-15.21-21.74-33.93-43.33-54.26-61.17,19.46-8.02,49.05-28.96,90.69-79.99,0,0-99.54-4.09-168,38.04,0,0,0,0,0,0-.14-.05-.28-.08-.42-.13-117.16-41.12-174.8-17.75-174.8-17.75,33.36,39.12,74.81,53.64,102.21,59.02-38.89,28.21-92.76,71.94-121.42,115.7,0,0,85.91-3.49,194.68-68.46,71.18,77.34,168.75,93.17,168.75,93.17Z"/>
  <path class="cls-1" d="M484.02,459.28c-13.71,0-18.58-15.12-18.58-28.08,0-23.48,10.99-29.76,23.72-37.04,2.72-1.56,5.53-3.17,8.4-5.02l3.65-2.36v52.53c0,9.45-7.06,19.97-17.19,19.97Z"/>
  <path class="cls-1" d="M498.84,439.31v-48.19c-16.45,10.66-31.04,13.2-31.04,40.08,0,9.73,3.24,25.71,16.22,25.71,9.04,0,14.83-9.96,14.83-17.61Z"/>
  <path class="cls-1" d="M484.02,610.27c-13.71,0-18.58-15.12-18.58-28.08,0-23.48,10.99-29.76,23.72-37.04,2.72-1.56,5.53-3.17,8.4-5.02l3.65-2.36v52.53c0,9.45-7.06,19.97-17.19,19.97Z"/>
  <path class="cls-1" d="M498.84,590.3v-48.19c-16.45,10.66-31.04,13.2-31.04,40.08,0,9.73,3.24,25.71,16.22,25.71,9.04,0,14.83-9.96,14.83-17.61Z"/>
  <g>
    <path class="cls-1" d="M848.91,348.41c-42.74,7.71-79.01,43.01-110.14,76.36l-39.59,42.7c16.79-7.02,35.91-9.68,49.93-9.68,41.86,0,60.86,26.32,83.19,78.16l.06,.15c3.49,8.05,6.68,15.22,9.62,21.63,14.69-35.65,22.7-73.98,22.7-113.9,0-33.11-5.51-65.13-15.77-95.44Z"/>
    <path class="cls-1" d="M72.59,422.81c4.81,0,9.42,1.53,12.97,4.29,2.85,2.22,4.63,5.46,5.03,9.11,.39,3.62-.7,7.27-2.99,10.03-1.43,1.72-2.22,4.19-2.22,6.96,0,8.78,8.87,13.62,24.97,13.62,10.28,0,27.52-2.01,27.52-15.48,0-9.13-14.51-14.5-31.31-20.73-17.95-6.65-39.24-14.56-48.32-30.3-1.56,10.52-2.61,21.18-3.02,31.97,3.62-6.26,10.52-9.48,17.37-9.48Z"/>
    <path class="cls-1" d="M742.58,559.45c-2.29-6.94-4.42-13.63-6.45-20-11.6-36.52-19.98-62.9-37.27-62.9-5.83,.03-10.49,4.85-10.49,10.74v59.34c0,47.5,4.38,67.36,31.52,67.36h2.36v5.12h-160.91v-5.12h2.36c39.7,0,39.7-21.11,39.7-67.36v-132.43c0-47.64,0-67.36-39.7-67.36h-2.36v-5.12h160.91v5.12h-2.36c-27.14,0-31.52,19.28-31.52,65.41v57.22c0,.53,.55,.54,.56,.54,.14,0,.25-.05,.37-.18l45.22-48.68c21.95-23.75,43.38-48.12,43.38-62.27,0-7.63-4.27-12.05-26.07-12.05h-2.36v-5.12h97.09c-33.52-91.94-111.1-167.4-211.75-208.5-7.48-3.06-16.09-1.37-21.91,4.23-1.08,1.04-2.16,2.06-3.23,3.07-7.83,7.34-8.71,19.37-2.09,27.81,4.42,5.63,8.7,11.39,12.82,17.25,22.99,30.37,37.57,60.67,43.34,90.06,.31,1.52,.6,3.02,.84,4.48l3.91,23.72c2.29,13.85-9.69,25.86-23.55,23.61l-23.73-3.85c-3.93-.64-85.51-14.51-158.78-74.89-6.27-5.17-15.04-6.01-22.29-2.35-97.55,49.27-171.3,52.84-174.76,52.99l-33.56,1.36c-16.69,.68-27.16-17.8-18.01-31.77l18.4-28.1c14.98-22.87,35.66-45.39,57.77-66.01,9.39-8.75,8.5-23.76-1.74-31.5-.1-.08-.2-.15-.31-.23-5.97-4.52-14-5.34-20.8-2.2-96.39,44.47-169.13,121.26-198.22,213.27,12.29-8.87,30.2-12.47,46.55-12.47,33.1,0,52.87,10.24,52.87,27.38,0,10.63-7.43,18.35-17.65,18.35-4.04,0-7.64-.96-10.7-2.84-3.12-1.92-5.21-4.99-5.91-8.64-.75-3.94,.24-8.09,2.71-11.39,1.02-1.36,1.58-3.13,1.58-4.98,0-7.83-8.77-12.69-22.89-12.69s-23.12,5.93-23.12,15.47,14.49,14.59,31.27,20.24c22.81,7.68,51.2,17.24,51.2,44.86,0,32.83-33.29,44.53-64.45,44.53-22.15,0-47.38-5.35-55.24-19.66,5.32,186.26,184.48,335.87,404.72,335.87,147.01,0,275.71-66.66,346.63-166.38-33.38-4.41-50.55-22.05-63.88-62.4Zm-261.1-212.53c-11.49,0-16.63,8.94-16.63,17.79,0,3.3,.99,6.4,2.78,8.73,4.77,6.22,4.62,14.69-.37,20.15-4.17,4.56-10.31,7.07-17.28,7.07-14.21,0-24.14-9.74-24.14-23.68,0-27.83,34.98-35.26,55.65-35.26,40.52,0,62.83,13.59,62.83,38.27v60.93c0,10.96,3.26,13.16,8.52,13.16,2.74,0,5.97-1.52,9.09-4.27l1.7-1.5,3.47,3.59-1.77,1.64c-12.69,11.78-26.46,18.01-39.84,18.01-8.78,0-16.07-3.03-21.09-8.78-2.18-2.5-5.29-3.93-8.53-3.93-2.46,0-4.79,.81-6.75,2.35-8.76,6.88-20.75,10.82-32.89,10.82-23.82,0-38.04-12.31-38.04-32.94,0-25.42,23.31-31.64,45.86-37.65,5.46-1.46,11.11-2.96,16.37-4.72,9.61-3.21,16.07-12.16,16.07-22.27,0-19.29-4.49-27.52-15.01-27.52Zm-131,276.09c-26.63,0-57.73-7.72-57.73-29.47,0-12.96,10.05-19.74,19.97-19.74,4.81,0,9.42,1.53,12.97,4.3,2.85,2.22,4.63,5.46,5.03,9.11,.39,3.62-.7,7.27-2.99,10.03-1.43,1.73-2.22,4.2-2.22,6.96,0,8.78,8.87,13.62,24.97,13.62,10.28,0,27.52-2.01,27.52-15.48,0-9.13-14.51-14.5-31.31-20.73-23.52-8.72-52.79-19.56-52.79-47.38,0-30.64,33.22-41.52,61.67-41.52,33.1,0,52.87,10.24,52.87,27.38,0,10.63-7.42,18.35-17.65,18.35-4.05,0-7.65-.96-10.7-2.84-3.12-1.92-5.21-4.99-5.9-8.64-.75-3.94,.24-8.09,2.71-11.39,1.02-1.36,1.58-3.13,1.58-4.98,0-7.83-8.77-12.69-22.89-12.69s-23.12,6.07-23.12,15.47,14.49,14.59,31.27,20.24c22.81,7.68,51.2,17.24,51.2,44.86,0,32.83-33.29,44.53-64.45,44.53Zm65.95-153.07l-2.36,.23h-78.12v-4.73l2.36-.23c8.93,0,10.61-4.15,10.61-26.13v-54.44c0-14.78-3.4-21.96-10.38-21.96-4.67,0-10.02,2.34-16.38,7.14-1.32,1-2.06,2.56-1.98,4.18,.07,1.48,.11,3.02,.11,4.61v60.46c0,18.07,1.53,26.13,10.61,26.13h2.36v4.73l-2.36,.23h-71.17v-4.73l2.36-.23c8.92,0,10.61-4.15,10.61-26.13v-54.44c0-14.78-3.4-21.96-10.38-21.96-4.69,0-10.16,2.4-16.29,7.14-1.25,.96-1.96,2.41-1.96,3.95v65.3c0,18.07,1.53,26.13,10.61,26.13h2.36v4.73l-2.36,.23h-78.12v-4.73l2.36-.23c15.26,0,17.56-3.42,17.56-26.13v-60.23c0-14.27-1.04-17.86-8.8-17.86-2.77,0-6.37,.53-11,1.63l-2.91,.69v-4.86l1.82-.66,56.77-13.35c.73-.17,1.49-.26,2.23-.26,2.59,0,5.11,1.07,6.93,2.94,1.83,1.89,2.8,4.38,2.73,7.01-.05,1.74,.71,2.89,1.36,3.56,.95,.98,2.27,1.54,3.62,1.54,1.05,0,2.06-.34,2.94-.99,16.06-11.87,26.96-16.5,38.85-16.5,13.62,0,22.25,5.5,26.36,16.81,.7,1.92,2.51,3.17,4.6,3.17,1.1,0,2.15-.36,3.04-1.03,18.19-13.81,29.62-18.95,42.21-18.95,19.95,0,29.24,11.72,29.24,36.88v60.47c0,22.71,2.3,26.13,17.56,26.13h2.36v4.73Zm87.96,143.83c-2.18-2.5-5.29-3.93-8.53-3.93-2.46,0-4.79,.81-6.75,2.35-8.76,6.88-20.75,10.82-32.89,10.82-23.82,0-38.04-12.31-38.04-32.94,0-25.42,23.31-31.64,45.86-37.65,5.46-1.46,11.11-2.96,16.37-4.72,9.61-3.21,16.07-12.16,16.07-22.27,0-19.29-4.49-27.52-15.01-27.52-11.49,0-16.63,8.94-16.63,17.79,0,3.3,.99,6.4,2.78,8.73,4.77,6.22,4.62,14.69-.37,20.15-4.17,4.56-10.31,7.07-17.28,7.07-14.21,0-24.14-9.74-24.14-23.68,0-27.83,34.98-35.26,55.65-35.26,40.52,0,62.83,13.59,62.83,38.27v60.93c0,10.96,3.26,13.16,8.52,13.16,2.74,0,5.97-1.52,9.09-4.27l1.7-1.5,3.47,3.59-1.77,1.64c-12.69,11.78-26.46,18.01-39.84,18.01-8.78,0-16.07-3.03-21.09-8.78Z"/>
    <path class="cls-1" d="M467.8,431.2c0,9.73,3.24,25.71,16.22,25.71,9.04,0,14.83-9.96,14.83-17.61v-48.19c-16.45,10.66-31.04,13.2-31.04,40.08Z"/>
    <path class="cls-1" d="M467.8,582.19c0,9.73,3.24,25.71,16.22,25.71,9.04,0,14.83-9.96,14.83-17.61v-48.19c-16.45,10.66-31.04,13.2-31.04,40.08Z"/>
  </g>
</svg>