<?xml version="1.0" encoding="UTF-8"?>
<svg id="Layer_1" data-name="Layer 1" xmlns="http://www.w3.org/2000/svg" xmlns:xlink="http://www.w3.org/1999/xlink" viewBox="0 0 1212.82 1669.09">
  <defs>
    <style>
      .cls-1, .cls-2, .cls-3 {
        stroke-miterlimit: 10;
      }

      .cls-1, .cls-2, .cls-3, .cls-4 {
        stroke: #1b1b1b;
      }

      .cls-1, .cls-3 {
        fill: none;
        stroke-width: 7px;
      }

      .cls-5 {
        fill: #89d978;
      }

      .cls-6 {
        fill: #68a95e;
      }

      .cls-2, .cls-4 {
        fill: #1b1b1b;
      }

      .cls-3 {
        stroke-linecap: round;
      }

      .cls-4 {
        stroke-linejoin: round;
        stroke-width: 3px;
      }

      .cls-7 {
        fill: url(#linear-gradient);
      }
    </style>
    <linearGradient id="linear-gradient" x1="972.79" y1="484.89" x2="972.79" y2="733.36" gradientUnits="userSpaceOnUse">
      <stop offset="0" stop-color="#ff465e"/>
      <stop offset=".15" stop-color="#ff4b5f"/>
      <stop offset=".34" stop-color="#ff5965"/>
      <stop offset=".54" stop-color="#ff726e"/>
      <stop offset=".76" stop-color="#ff947a"/>
      <stop offset=".98" stop-color="#ffc08a"/>
      <stop offset="1" stop-color="#ffc58c"/>
    </linearGradient>
  </defs>
  <path class="cls-6" d="M987.66,491.69s14.48,9.78,50.62-34.52c0,0-43.77-1.8-72.48,17.26-41.79,27.74,21.86,17.26,21.86,17.26Z"/>
  <path class="cls-5" d="M949.65,491.69s-32.21,.91-55.22-26.07c0,0,25.4-10.32,77.08,8.81,47.04,17.41-21.86,17.26-21.86,17.26Z"/>
  <path class="cls-5" d="M998.69,491.31c14.81,12.24,36.09,34.39,40.01,57.91,0,0-48.32-7.84-78.23-48.1-15.75-21.2-2.17-31.38,7.39-27.99,25.51,9.05,23.38,12.04,30.83,18.19Z"/>
  <path class="cls-5" d="M956.5,477.31s-49.96,30.76-70.13,61.55c0,0,37.88-1.53,85.14-30.85,42.63-26.44-15.01-30.71-15.01-30.71Z"/>
  <path class="cls-5" d="M967.86,473.12c31.63,5.27,66.92,52.58,70.84,76.1"/>
  <path class="cls-5" d="M1097.4,630.38c-106.29,20.43-151.77,52.69-169.97,81.43-20.08,31.7,6.9,72.31,44.01,66.77,83.14-12.39,122.3-130.49,127.3-146.72,.26-.84-.48-1.65-1.34-1.48Zm-18.9,27.92c-31.34,65.19-76.49,96.75-104.97,107.62-4.83,1.84-7.7-5.28-2.98-7.39,53.5-23.82,90.66-77.78,105.92-101.38,.79-1.22,2.66-.17,2.03,1.14Z"/>
  <g>
    <path class="cls-4" d="M38.29,574.32c0-11.75,8.88-17.99,18.23-17.99,4.43,0,8.66,1.38,11.92,3.93,5.03,3.93,5.81,11.42,1.74,16.33-1.82,2.19-2.86,5.31-2.86,8.77,0,8.4,6.48,16.55,28.31,16.55,15.35,0,30.95-4.32,30.95-18.47,0-26.15-87.08-23.27-87.08-70.53,0-29.51,31.91-40.54,61.41-40.54,26.39,0,52.3,6.72,52.3,25.91,0,9.36-6.24,16.55-15.83,16.55-3.79,0-7.1-.92-9.8-2.58-5.9-3.64-6.79-11.64-2.64-17.18,1.46-1.94,2.12-4.36,2.12-6.62,0-8.64-8.64-15.59-26.15-15.59s-26.39,7.92-26.39,18.47c0,27.35,85.4,20.15,85.4,67.41,0,30.71-30.23,43.66-64.29,43.66-26.87,0-57.34-7.44-57.34-28.07Z"/>
    <path class="cls-4" d="M389.51,570.73c0,23.27,2.16,29.51,20.63,29.51v.24h-78.45v-.24c12.23,0,13.43-7.92,13.43-29.51v-56.38c0-9.84-1.2-25.19-13.19-25.19-5.86,0-12.05,3.06-18.44,7.89-2,1.51-3.14,3.9-3.02,6.4,.07,1.5,.11,3.05,.11,4.66v62.61c0,17.51,1.2,29.51,13.43,29.51v.24h-71.25v-.24c12.24,0,13.43-7.92,13.43-29.51v-56.38c0-9.84-1.2-25.19-13.19-25.19-5.92,0-12.19,3.13-18.36,7.91-1.87,1.45-2.98,3.67-2.98,6.03v67.62c0,17.51,1.2,29.51,13.43,29.51v.24h-78.45v-.24c18.47,0,20.63-6.24,20.63-29.51v-62.37c0-17.75-1.2-24.47-23.51-19.19v-.24l58.79-13.82c4.84-1.14,9.45,2.62,9.31,7.59h0c-.17,6.33,7.02,10.05,12.11,6.29,16.16-11.94,27-16.6,38.78-16.6,13.03,0,21.1,5.07,25,15.8,1.73,4.77,7.65,6.4,11.69,3.33,18.24-13.85,29.7-19.12,42.23-19.12,19.43,0,27.83,11.28,27.83,35.75v62.62Z"/>
    <path class="cls-4" d="M565.1,583.91c-10.08,9.36-23.75,17.99-39.58,17.99-8.89,0-15.5-3.11-20-8.25-4.94-5.65-13.27-6.59-19.17-1.96-8.28,6.5-19.99,10.69-32.55,10.69-22.55,0-36.94-11.04-36.94-31.67,0-30.52,34.99-32.27,62.77-41.55,10.93-3.65,18.31-13.86,18.31-25.38h0c0-14.15-1.92-30.95-17.99-30.95-13.67,0-19.67,10.8-19.67,20.87,0,4.11,1.25,7.76,3.38,10.53,4.07,5.31,4.27,12.78-.24,17.72-4.02,4.4-9.9,6.53-16.09,6.53-12.95,0-22.55-8.64-22.55-22.07,0-27.59,36.46-34.07,55.18-34.07,33.35,0,62.61,9.36,62.61,37.18v63.09c0,9.84,2.4,16.07,11.28,16.07,3.12,0,6.96-1.44,11.04-5.04l.23,.24Zm-67.17-12.95v-49.9c-17.03,11.04-32.15,13.67-32.15,41.5,0,10.08,3.36,26.63,16.79,26.63,9.36,0,15.35-10.32,15.35-18.23Z"/>
    <path class="cls-4" d="M286.96,730.67c0-11.75,8.88-17.99,18.23-17.99,4.43,0,8.66,1.38,11.92,3.93,5.03,3.93,5.81,11.42,1.74,16.33-1.82,2.19-2.86,5.31-2.86,8.77,0,8.4,6.48,16.55,28.31,16.55,15.35,0,30.95-4.32,30.95-18.47,0-26.15-87.08-23.27-87.08-70.53,0-29.51,31.91-40.54,61.41-40.54,26.39,0,52.3,6.72,52.3,25.91,0,9.36-6.24,16.55-15.83,16.55-3.79,0-7.1-.92-9.8-2.58-5.9-3.64-6.79-11.64-2.64-17.18,1.46-1.94,2.12-4.36,2.12-6.62,0-8.64-8.64-15.59-26.15-15.59s-26.39,7.92-26.39,18.47c0,27.35,85.4,20.15,85.4,67.41,0,30.71-30.23,43.66-64.29,43.66-26.87,0-57.34-7.44-57.34-28.07Z"/>
    <path class="cls-4" d="M565.1,740.27c-10.08,9.36-23.75,17.99-39.58,17.99-8.89,0-15.5-3.11-20-8.25-4.94-5.65-13.27-6.59-19.17-1.96-8.28,6.5-19.99,10.69-32.55,10.69-22.55,0-36.94-11.04-36.94-31.67,0-30.52,34.99-32.27,62.77-41.55,10.93-3.65,18.31-13.86,18.31-25.38h0c0-14.15-1.92-30.95-17.99-30.95-13.67,0-19.67,10.8-19.67,20.87,0,4.11,1.25,7.76,3.38,10.53,4.07,5.31,4.27,12.78-.24,17.72-4.02,4.4-9.9,6.53-16.09,6.53-12.95,0-22.55-8.64-22.55-22.07,0-27.59,36.46-34.07,55.18-34.07,33.35,0,62.61,9.36,62.61,37.18v63.09c0,9.84,2.4,16.07,11.28,16.07,3.12,0,6.96-1.44,11.04-5.04l.23,.24Zm-67.17-12.95v-49.9c-17.03,11.04-32.15,13.67-32.15,41.5,0,10.08,3.36,26.63,16.79,26.63,9.36,0,15.35-10.32,15.35-18.23Z"/>
  </g>
  <path class="cls-7" d="M1029.62,486.85c-1.32,1.22-2.63,2.39-3.92,3.5-3.2,2.74-3.48,7.61-.53,10.61,15.25,15.53,24.24,30.97,26.74,45.98l1.5,8.98c.82,4.91-3.43,9.17-8.34,8.38l-8.98-1.46c-1.78-.29-36.41-6.2-66.97-32.09-2.26-1.92-5.45-2.3-8.09-.94-41.3,21.26-72.61,22.79-74.1,22.85l-12.68,.51c-5.91,.24-9.62-6.3-6.38-11.25l6.95-10.62c6.86-10.47,16.64-20.78,26.88-30.02,3.46-3.12,3.1-8.69-.74-11.33-.09-.06-.18-.12-.26-.18-2.03-1.41-4.63-1.71-6.92-.78-45.3,18.25-79.47,52.18-91.97,93.15-.91,2.99,.24,6.25,2.83,8.02,4.22,2.89,8.23,6.26,12.09,10.13,13.29,13.34,24.92,32.86,38.88,65.24l.06,.15c14.11,32.56,23.16,50.61,30.26,60.36,5.34,7.34,7.47,7.34,9.71,7.34h0c.92,0,2.03-.07,3.39-.21l1.33-.14c3.27-.34,5.87-2.83,6.42-6.07,1.07-6.35,3.26-12.58,6.56-18.43,23.98-42.51,85.56-73.46,183.03-91.98l.62-.12c.44-.08,.89-.13,1.33-.13h.67c4.4,0,8.6,2.1,11.24,5.62,2.63,3.52,3.47,8.14,2.23,12.36-1.2,4.06-12.29,40.55-34.72,77.1-.06,.1-.13,.21-.19,.31-4.24,6.89,4.14,14.51,10.6,9.63,34.4-26,55.95-63.23,55.95-104.59,0-59.25-44.22-110.03-107.11-131.44-2.56-.87-5.38-.26-7.36,1.57Z"/>
  <path class="cls-4" d="M840.98,672.02c31.46,72.6,40.33,79.05,59.69,77.04v.4c-17.34,4.84-43.96,9.28-64.13,9.28-49.61,0-68.97-18.96-83.89-64.13-16.54-50.01-24.6-87.52-47.59-87.52-.04,0-.08,0-.13,0-7.34,.04-13.18,6.23-13.18,13.57v61.45c0,47.19,3.63,72.2,35.09,72.2v.4h-161.74v-.4c43.56,0,43.56-25.01,43.56-72.2v-137.13c0-48.8,0-72.2-43.56-72.2v-.4h161.74v.4c-31.46,0-35.09,25.01-35.09,70.18v59.26c0,2.73,3.34,4.04,5.2,2.04l46.83-50.41c24.6-26.62,45.58-50.82,45.58-66.15,0-10.89-8.07-14.92-29.44-14.92v-.4h118.18v.4c-51.63,0-93.98,39.12-133.51,81.47l-50.28,54.24c19.79-12.11,45.96-15.92,62.78-15.92,40.74,0,60.1,24.2,83.89,79.46h0Z"/>
  <g>
    <path class="cls-4" d="M38.29,977.43c0-11.75,8.88-17.99,18.23-17.99,4.43,0,8.66,1.38,11.92,3.93,5.03,3.93,5.81,11.42,1.74,16.33-1.82,2.19-2.86,5.31-2.86,8.77,0,8.4,6.48,16.55,28.31,16.55,15.35,0,30.95-4.32,30.95-18.47,0-26.15-87.08-23.27-87.08-70.53,0-29.51,31.91-40.54,61.41-40.54,26.39,0,52.3,6.72,52.3,25.91,0,9.36-6.24,16.55-15.83,16.55-3.79,0-7.1-.92-9.8-2.58-5.9-3.64-6.79-11.64-2.64-17.18,1.46-1.94,2.12-4.36,2.12-6.62,0-8.64-8.64-15.59-26.15-15.59s-26.39,7.92-26.39,18.47c0,27.35,85.4,20.15,85.4,67.41,0,30.71-30.23,43.66-64.29,43.66-26.87,0-57.34-7.44-57.34-28.07Z"/>
    <path class="cls-4" d="M389.51,973.84c0,23.27,2.16,29.51,20.63,29.51v.24h-78.45v-.24c12.23,0,13.43-7.92,13.43-29.51v-56.38c0-9.84-1.2-25.19-13.19-25.19-5.86,0-12.05,3.06-18.44,7.89-2,1.51-3.14,3.9-3.02,6.4,.07,1.5,.11,3.05,.11,4.66v62.61c0,17.51,1.2,29.51,13.43,29.51v.24h-71.25v-.24c12.24,0,13.43-7.92,13.43-29.51v-56.38c0-9.84-1.2-25.19-13.19-25.19-5.92,0-12.19,3.13-18.36,7.91-1.87,1.45-2.98,3.67-2.98,6.03v67.62c0,17.51,1.2,29.51,13.43,29.51v.24h-78.45v-.24c18.47,0,20.63-6.24,20.63-29.51v-62.37c0-17.75-1.2-24.47-23.51-19.19v-.24l58.79-13.82c4.84-1.14,9.45,2.62,9.31,7.59h0c-.17,6.33,7.02,10.05,12.11,6.29,16.16-11.94,27-16.6,38.78-16.6,13.03,0,21.1,5.07,25,15.8,1.73,4.77,7.65,6.4,11.69,3.33,18.24-13.85,29.7-19.12,42.23-19.12,19.43,0,27.83,11.28,27.83,35.75v62.62Z"/>
    <path class="cls-4" d="M565.1,987.03c-10.08,9.36-23.75,17.99-39.58,17.99-8.89,0-15.5-3.11-20-8.25-4.94-5.65-13.27-6.59-19.17-1.96-8.28,6.5-19.99,10.69-32.55,10.69-22.55,0-36.94-11.04-36.94-31.67,0-30.52,34.99-32.27,62.77-41.55,10.93-3.65,18.31-13.86,18.31-25.38h0c0-14.15-1.92-30.95-17.99-30.95-13.67,0-19.67,10.8-19.67,20.87,0,4.11,1.25,7.76,3.38,10.53,4.07,5.31,4.27,12.78-.24,17.72-4.02,4.4-9.9,6.53-16.09,6.53-12.95,0-22.55-8.64-22.55-22.07,0-27.59,36.46-34.07,55.18-34.07,33.35,0,62.61,9.36,62.61,37.18v63.09c0,9.84,2.4,16.07,11.28,16.07,3.12,0,6.96-1.44,11.04-5.04l.23,.24Zm-67.17-12.95v-49.9c-17.03,11.04-32.15,13.67-32.15,41.5,0,10.08,3.36,26.63,16.79,26.63,9.36,0,15.35-10.32,15.35-18.23Z"/>
    <path class="cls-4" d="M286.96,1133.78c0-11.75,8.88-17.99,18.23-17.99,4.43,0,8.66,1.38,11.92,3.93,5.03,3.93,5.81,11.42,1.74,16.33-1.82,2.19-2.86,5.31-2.86,8.77,0,8.4,6.48,16.55,28.31,16.55,15.35,0,30.95-4.32,30.95-18.47,0-26.15-87.08-23.27-87.08-70.53,0-29.51,31.91-40.54,61.41-40.54,26.39,0,52.3,6.72,52.3,25.91,0,9.36-6.24,16.55-15.83,16.55-3.79,0-7.1-.92-9.8-2.58-5.9-3.64-6.79-11.64-2.64-17.18,1.46-1.94,2.12-4.36,2.12-6.62,0-8.64-8.64-15.59-26.15-15.59s-26.39,7.92-26.39,18.47c0,27.35,85.4,20.15,85.4,67.41,0,30.71-30.23,43.66-64.29,43.66-26.87,0-57.34-7.44-57.34-28.07Z"/>
    <path class="cls-4" d="M565.1,1143.38c-10.08,9.36-23.75,17.99-39.58,17.99-8.89,0-15.5-3.11-20-8.25-4.94-5.65-13.27-6.59-19.17-1.96-8.28,6.5-19.99,10.69-32.55,10.69-22.55,0-36.94-11.04-36.94-31.67,0-30.52,34.99-32.27,62.77-41.55,10.93-3.65,18.31-13.86,18.31-25.38h0c0-14.15-1.92-30.95-17.99-30.95-13.67,0-19.67,10.8-19.67,20.87,0,4.11,1.25,7.76,3.38,10.53,4.07,5.31,4.27,12.78-.24,17.72-4.02,4.4-9.9,6.53-16.09,6.53-12.95,0-22.55-8.64-22.55-22.07,0-27.59,36.46-34.07,55.18-34.07,33.35,0,62.61,9.36,62.61,37.18v63.09c0,9.84,2.4,16.07,11.28,16.07,3.12,0,6.96-1.44,11.04-5.04l.23,.24Zm-67.17-12.95v-49.9c-17.03,11.04-32.15,13.67-32.15,41.5,0,10.08,3.36,26.63,16.79,26.63,9.36,0,15.35-10.32,15.35-18.23Z"/>
  </g>
  <path class="cls-4" d="M840.98,1075.13c31.46,72.6,40.33,79.05,59.69,77.04v.4c-17.34,4.84-43.96,9.28-64.13,9.28-49.61,0-68.97-18.96-83.89-64.13-16.54-50.01-24.6-87.52-47.59-87.52-.04,0-.08,0-.13,0-7.34,.04-13.18,6.23-13.18,13.57v61.45c0,47.19,3.63,72.2,35.09,72.2v.4h-161.74v-.4c43.56,0,43.56-25.01,43.56-72.2v-137.13c0-48.8,0-72.2-43.56-72.2v-.4h161.74v.4c-31.46,0-35.09,25.01-35.09,70.18v59.26c0,2.73,3.34,4.04,5.2,2.04l46.83-50.41c24.6-26.62,45.58-50.82,45.58-66.15,0-10.89-8.07-14.92-29.44-14.92v-.4h118.18v.4c-51.63,0-93.98,39.12-133.51,81.47l-50.28,54.24c19.79-12.11,45.96-15.92,62.78-15.92,40.74,0,60.1,24.2,83.89,79.46h0Z"/>
  <g>
    <path class="cls-4" d="M64.38,172.86c0-11.75,8.88-17.99,18.23-17.99,4.43,0,8.66,1.38,11.92,3.93,5.03,3.93,5.81,11.42,1.74,16.33-1.82,2.19-2.86,5.31-2.86,8.77,0,8.4,6.48,16.55,28.31,16.55,15.35,0,30.95-4.32,30.95-18.47,0-26.15-87.08-23.27-87.08-70.53,0-29.51,31.91-40.54,61.41-40.54,26.39,0,52.3,6.72,52.3,25.91,0,9.36-6.24,16.55-15.83,16.55-3.79,0-7.1-.92-9.8-2.58-5.9-3.64-6.79-11.64-2.64-17.18,1.46-1.94,2.12-4.36,2.12-6.62,0-8.64-8.64-15.59-26.15-15.59s-26.39,7.92-26.39,18.47c0,27.35,85.4,20.15,85.4,67.41,0,30.71-30.23,43.66-64.29,43.66-26.87,0-57.34-7.44-57.34-28.07Z"/>
    <path class="cls-4" d="M415.6,169.27c0,23.27,2.16,29.51,20.63,29.51v.24h-78.45v-.24c12.23,0,13.43-7.92,13.43-29.51v-56.38c0-9.84-1.2-25.19-13.19-25.19-5.86,0-12.05,3.06-18.44,7.89-2,1.51-3.14,3.9-3.02,6.4,.07,1.5,.11,3.05,.11,4.66v62.61c0,17.51,1.2,29.51,13.43,29.51v.24h-71.25v-.24c12.24,0,13.43-7.92,13.43-29.51v-56.38c0-9.84-1.2-25.19-13.19-25.19-5.92,0-12.19,3.13-18.36,7.91-1.87,1.45-2.98,3.67-2.98,6.03v67.62c0,17.51,1.2,29.51,13.43,29.51v.24h-78.45v-.24c18.47,0,20.63-6.24,20.63-29.51v-62.37c0-17.75-1.2-24.47-23.51-19.19v-.24l58.79-13.82c4.84-1.14,9.45,2.62,9.31,7.59h0c-.17,6.33,7.02,10.05,12.11,6.29,16.16-11.94,27-16.6,38.78-16.6,13.03,0,21.1,5.07,25,15.8,1.73,4.77,7.65,6.4,11.69,3.33,18.24-13.85,29.7-19.12,42.23-19.12,19.43,0,27.83,11.28,27.83,35.75v62.62Z"/>
    <path class="cls-4" d="M591.19,182.46c-10.08,9.36-23.75,17.99-39.58,17.99-8.89,0-15.5-3.11-20-8.25-4.94-5.65-13.27-6.59-19.17-1.96-8.28,6.5-19.99,10.69-32.55,10.69-22.55,0-36.94-11.04-36.94-31.67,0-30.52,34.99-32.27,62.77-41.55,10.93-3.65,18.31-13.86,18.31-25.38h0c0-14.15-1.92-30.95-17.99-30.95-13.67,0-19.67,10.8-19.67,20.87,0,4.11,1.25,7.76,3.38,10.53,4.07,5.31,4.27,12.78-.24,17.72-4.02,4.4-9.9,6.53-16.09,6.53-12.95,0-22.55-8.64-22.55-22.07,0-27.59,36.46-34.07,55.18-34.07,33.35,0,62.61,9.36,62.61,37.18v63.09c0,9.84,2.4,16.07,11.28,16.07,3.12,0,6.96-1.44,11.04-5.04l.23,.24Zm-67.17-12.95v-49.9c-17.03,11.04-32.15,13.67-32.15,41.5,0,10.08,3.36,26.63,16.79,26.63,9.36,0,15.35-10.32,15.35-18.23Z"/>
    <path class="cls-4" d="M313.04,329.22c0-11.75,8.88-17.99,18.23-17.99,4.43,0,8.66,1.38,11.92,3.93,5.03,3.93,5.81,11.42,1.74,16.33-1.82,2.19-2.86,5.31-2.86,8.77,0,8.4,6.48,16.55,28.31,16.55,15.35,0,30.95-4.32,30.95-18.47,0-26.15-87.08-23.27-87.08-70.53,0-29.51,31.91-40.54,61.41-40.54,26.39,0,52.3,6.72,52.3,25.91,0,9.36-6.24,16.55-15.83,16.55-3.79,0-7.1-.92-9.8-2.58-5.9-3.64-6.79-11.64-2.64-17.18,1.46-1.94,2.12-4.36,2.12-6.62,0-8.64-8.64-15.59-26.15-15.59s-26.39,7.92-26.39,18.47c0,27.35,85.4,20.15,85.4,67.41,0,30.71-30.23,43.66-64.29,43.66-26.87,0-57.34-7.44-57.34-28.07Z"/>
    <path class="cls-4" d="M591.19,338.81c-10.08,9.36-23.75,17.99-39.58,17.99-8.89,0-15.5-3.11-20-8.25-4.94-5.65-13.27-6.59-19.17-1.96-8.28,6.5-19.99,10.69-32.55,10.69-22.55,0-36.94-11.04-36.94-31.67,0-30.52,34.99-32.27,62.77-41.55,10.93-3.65,18.31-13.86,18.31-25.38h0c0-14.15-1.92-30.95-17.99-30.95-13.67,0-19.67,10.8-19.67,20.87,0,4.11,1.25,7.76,3.38,10.53,4.07,5.31,4.27,12.78-.24,17.72-4.02,4.4-9.9,6.53-16.09,6.53-12.95,0-22.55-8.64-22.55-22.07,0-27.59,36.46-34.07,55.18-34.07,33.35,0,62.61,9.36,62.61,37.18v63.09c0,9.84,2.4,16.07,11.28,16.07,3.12,0,6.96-1.44,11.04-5.04l.23,.24Zm-67.17-12.95v-49.9c-17.03,11.04-32.15,13.67-32.15,41.5,0,10.08,3.36,26.63,16.79,26.63,9.36,0,15.35-10.32,15.35-18.23Z"/>
  </g>
  <path class="cls-4" d="M867.07,270.57c31.46,72.6,40.33,79.05,59.69,77.04v.4c-17.34,4.84-43.96,9.28-64.13,9.28-49.61,0-68.97-18.96-83.89-64.13-16.54-50.01-24.6-87.52-47.59-87.52-.04,0-.08,0-.13,0-7.34,.04-13.18,6.23-13.18,13.57v61.45c0,47.19,3.63,72.2,35.09,72.2v.4h-161.74v-.4c43.56,0,43.56-25.01,43.56-72.2V143.51c0-48.8,0-72.2-43.56-72.2v-.4h161.74v.4c-31.46,0-35.09,25.01-35.09,70.18v59.26c0,2.73,3.34,4.04,5.2,2.04l46.83-50.41c24.6-26.62,45.58-50.82,45.58-66.15,0-10.89-8.07-14.92-29.44-14.92v-.4h118.18v.4c-51.63,0-93.98,39.12-133.51,81.47l-50.28,54.24c19.79-12.11,45.96-15.92,62.78-15.92,40.74,0,60.1,24.2,83.89,79.46h0Z"/>
  <path class="cls-1" d="M1040.38,954.23c-.07-.44-.16-.89-.25-1.34-2.19-11.27-8.25-22.19-15.58-31.84-6.44-9.2-14.36-18.33-22.96-25.88,8.24-3.39,20.75-12.25,38.37-33.84,0,0-42.12-1.73-71.08,16.09,0,0,0,0,0,0-.06-.02-.12-.03-.18-.05-49.57-17.4-73.96-7.51-73.96-7.51,14.12,16.55,31.65,22.69,43.25,24.97-16.45,11.94-39.25,30.44-51.37,48.95,0,0,36.35-1.48,82.37-28.97,30.12,32.72,71.4,39.42,71.4,39.42Z"/>
  <path class="cls-1" d="M969.9,877.67c4.16,1.07,18.02,6.16,31.68,17.5,0,0,10.47-1.06,38.37-33.84,0,0-49.07,.88-70.21,15.47-.34,.24-.24,.77,.16,.87Z"/>
  <path class="cls-1" d="M1097.4,1033.49c-106.29,20.43-151.77,52.69-169.97,81.43-20.08,31.7,6.9,72.31,44.01,66.77,83.14-12.39,122.3-130.49,127.3-146.72,.26-.84-.48-1.65-1.34-1.48Z"/>
  <path class="cls-1" d="M1029.62,889.96c-1.32,1.22-2.63,2.39-3.92,3.5-3.2,2.74-3.48,7.61-.53,10.61,15.25,15.53,24.24,30.97,26.74,45.98l1.5,8.98c.82,4.91-3.43,9.17-8.34,8.38l-8.98-1.46c-1.78-.29-36.41-6.2-66.97-32.09-2.26-1.92-5.45-2.3-8.09-.94-41.3,21.26-72.61,22.79-74.1,22.85l-12.68,.51c-5.91,.24-9.62-6.3-6.38-11.25l6.95-10.62c6.86-10.47,16.64-20.78,26.88-30.02,3.46-3.12,3.1-8.69-.74-11.33-.09-.06-.18-.12-.26-.18-2.03-1.41-4.63-1.71-6.92-.78-45.3,18.25-79.47,52.18-91.97,93.15-.91,2.99,.24,6.25,2.83,8.02,4.22,2.89,8.23,6.26,12.09,10.13,13.29,13.34,24.92,32.86,38.88,65.24l.06,.15c14.11,32.56,23.16,50.61,30.26,60.36,5.34,7.34,7.47,7.34,9.71,7.34h0c.92,0,2.03-.07,3.39-.21l1.33-.14c3.27-.34,5.87-2.83,6.42-6.07,1.07-6.35,3.26-12.58,6.56-18.43,23.98-42.51,85.56-73.46,183.03-91.98l.62-.12c.44-.08,.89-.13,1.33-.13h.67c4.4,0,8.6,2.1,11.24,5.62,2.63,3.52,3.47,8.14,2.23,12.36-1.2,4.06-12.29,40.55-34.72,77.1-.06,.1-.13,.21-.19,.31-4.24,6.89,4.14,14.51,10.6,9.63,34.4-26,55.95-63.23,55.95-104.59,0-59.25-44.22-110.03-107.11-131.44-2.56-.87-5.38-.26-7.36,1.57Z"/>
  <polyline class="cls-3" points="953.85 1153.89 975.04 1136.47 1060.69 1066.02"/>
  <line class="cls-3" x1="1003.01" y1="1136.47" x2="972.79" y2="1138.32"/>
  <line class="cls-3" x1="978.63" y1="1109.96" x2="972.79" y2="1138.32"/>
  <line class="cls-3" x1="1022.39" y1="1118.5" x2="992.16" y2="1120.35"/>
  <line class="cls-3" x1="998" y1="1091.99" x2="992.16" y2="1120.35"/>
  <path class="cls-2" d="M987.66,1285.4s14.48,9.78,50.62-34.52c0,0-43.77-1.8-72.48,17.26-41.79,27.74,21.86,17.26,21.86,17.26Z"/>
  <path class="cls-2" d="M949.65,1285.4s-32.21,.91-55.22-26.07c0,0,25.4-10.32,77.08,8.81,47.04,17.41-21.86,17.26-21.86,17.26Z"/>
  <path class="cls-2" d="M998.69,1285.02c14.81,12.24,36.09,34.39,40.01,57.91,0,0-48.32-7.84-78.23-48.1-15.75-21.2-2.17-31.38,7.39-27.99,25.51,9.05,23.38,12.04,30.83,18.19Z"/>
  <path class="cls-2" d="M956.5,1271.02s-49.96,30.76-70.13,61.55c0,0,37.88-1.53,85.14-30.85,42.63-26.44-15.01-30.71-15.01-30.71Z"/>
  <path class="cls-2" d="M967.86,1266.83c31.63,5.27,66.92,52.58,70.84,76.1"/>
  <path class="cls-2" d="M1097.4,1424.09c-106.29,20.43-151.77,52.69-169.97,81.43-20.08,31.7,6.9,72.31,44.01,66.77,83.14-12.39,122.3-130.49,127.3-146.72,.26-.84-.48-1.65-1.34-1.48Zm-18.9,27.92c-31.34,65.19-76.49,96.75-104.97,107.62-4.83,1.84-7.7-5.28-2.98-7.39,53.5-23.82,90.66-77.78,105.92-101.38,.79-1.22,2.66-.17,2.03,1.14Z"/>
  <g>
    <path class="cls-4" d="M38.29,1368.03c0-11.75,8.88-17.99,18.23-17.99,4.43,0,8.66,1.38,11.92,3.93,5.03,3.93,5.81,11.42,1.74,16.33-1.82,2.19-2.86,5.31-2.86,8.77,0,8.4,6.48,16.55,28.31,16.55,15.35,0,30.95-4.32,30.95-18.47,0-26.15-87.08-23.27-87.08-70.53,0-29.51,31.91-40.54,61.41-40.54,26.39,0,52.3,6.72,52.3,25.91,0,9.36-6.24,16.55-15.83,16.55-3.79,0-7.1-.92-9.8-2.58-5.9-3.64-6.79-11.64-2.64-17.18,1.46-1.94,2.12-4.36,2.12-6.62,0-8.64-8.64-15.59-26.15-15.59s-26.39,7.92-26.39,18.47c0,27.35,85.4,20.15,85.4,67.41,0,30.71-30.23,43.66-64.29,43.66-26.87,0-57.34-7.44-57.34-28.07Z"/>
    <path class="cls-4" d="M389.51,1364.44c0,23.27,2.16,29.51,20.63,29.51v.24h-78.45v-.24c12.23,0,13.43-7.92,13.43-29.51v-56.38c0-9.84-1.2-25.19-13.19-25.19-5.86,0-12.05,3.06-18.44,7.89-2,1.51-3.14,3.9-3.02,6.4,.07,1.5,.11,3.05,.11,4.66v62.61c0,17.51,1.2,29.51,13.43,29.51v.24h-71.25v-.24c12.24,0,13.43-7.92,13.43-29.51v-56.38c0-9.84-1.2-25.19-13.19-25.19-5.92,0-12.19,3.13-18.36,7.91-1.87,1.45-2.98,3.67-2.98,6.03v67.62c0,17.51,1.2,29.51,13.43,29.51v.24h-78.45v-.24c18.47,0,20.63-6.24,20.63-29.51v-62.37c0-17.75-1.2-24.47-23.51-19.19v-.24l58.79-13.82c4.84-1.14,9.45,2.62,9.31,7.59h0c-.17,6.33,7.02,10.05,12.11,6.29,16.16-11.94,27-16.6,38.78-16.6,13.03,0,21.1,5.07,25,15.8,1.73,4.77,7.65,6.4,11.69,3.33,18.24-13.85,29.7-19.12,42.23-19.12,19.43,0,27.83,11.28,27.83,35.75v62.62Z"/>
    <path class="cls-4" d="M565.1,1377.63c-10.08,9.36-23.75,17.99-39.58,17.99-8.89,0-15.5-3.11-20-8.25-4.94-5.65-13.27-6.59-19.17-1.96-8.28,6.5-19.99,10.69-32.55,10.69-22.55,0-36.94-11.04-36.94-31.67,0-30.52,34.99-32.27,62.77-41.55,10.93-3.65,18.31-13.86,18.31-25.38h0c0-14.15-1.92-30.95-17.99-30.95-13.67,0-19.67,10.8-19.67,20.87,0,4.11,1.25,7.76,3.38,10.53,4.07,5.31,4.27,12.78-.24,17.72-4.02,4.4-9.9,6.53-16.09,6.53-12.95,0-22.55-8.64-22.55-22.07,0-27.59,36.46-34.07,55.18-34.07,33.35,0,62.61,9.36,62.61,37.18v63.09c0,9.84,2.4,16.07,11.28,16.07,3.12,0,6.96-1.44,11.04-5.04l.23,.24Zm-67.17-12.95v-49.9c-17.03,11.04-32.15,13.67-32.15,41.5,0,10.08,3.36,26.63,16.79,26.63,9.36,0,15.35-10.32,15.35-18.23Z"/>
    <path class="cls-4" d="M286.96,1524.38c0-11.75,8.88-17.99,18.23-17.99,4.43,0,8.66,1.38,11.92,3.93,5.03,3.93,5.81,11.42,1.74,16.33-1.82,2.19-2.86,5.31-2.86,8.77,0,8.4,6.48,16.55,28.31,16.55,15.35,0,30.95-4.32,30.95-18.47,0-26.15-87.08-23.27-87.08-70.53,0-29.51,31.91-40.54,61.41-40.54,26.39,0,52.3,6.72,52.3,25.91,0,9.36-6.24,16.55-15.83,16.55-3.79,0-7.1-.92-9.8-2.58-5.9-3.64-6.79-11.64-2.64-17.18,1.46-1.94,2.12-4.36,2.12-6.62,0-8.64-8.64-15.59-26.15-15.59s-26.39,7.92-26.39,18.47c0,27.35,85.4,20.15,85.4,67.41,0,30.71-30.23,43.66-64.29,43.66-26.87,0-57.34-7.44-57.34-28.07Z"/>
    <path class="cls-4" d="M565.1,1533.98c-10.08,9.36-23.75,17.99-39.58,17.99-8.89,0-15.5-3.11-20-8.25-4.94-5.65-13.27-6.59-19.17-1.96-8.28,6.5-19.99,10.69-32.55,10.69-22.55,0-36.94-11.04-36.94-31.67,0-30.52,34.99-32.27,62.77-41.55,10.93-3.65,18.31-13.86,18.31-25.38h0c0-14.15-1.92-30.95-17.99-30.95-13.67,0-19.67,10.8-19.67,20.87,0,4.11,1.25,7.76,3.38,10.53,4.07,5.31,4.27,12.78-.24,17.72-4.02,4.4-9.9,6.53-16.09,6.53-12.95,0-22.55-8.64-22.55-22.07,0-27.59,36.46-34.07,55.18-34.07,33.35,0,62.61,9.36,62.61,37.18v63.09c0,9.84,2.4,16.07,11.28,16.07,3.12,0,6.96-1.44,11.04-5.04l.23,.24Zm-67.17-12.95v-49.9c-17.03,11.04-32.15,13.67-32.15,41.5,0,10.08,3.36,26.63,16.79,26.63,9.36,0,15.35-10.32,15.35-18.23Z"/>
  </g>
  <path class="cls-2" d="M1029.62,1280.57c-1.32,1.22-2.63,2.39-3.92,3.5-3.2,2.74-3.48,7.61-.53,10.61,15.25,15.53,24.24,30.97,26.74,45.98l1.5,8.98c.82,4.91-3.43,9.17-8.34,8.38l-8.98-1.46c-1.78-.29-36.41-6.2-66.97-32.09-2.26-1.92-5.45-2.3-8.09-.94-41.3,21.26-72.61,22.79-74.1,22.85l-12.68,.51c-5.91,.24-9.62-6.3-6.38-11.25l6.95-10.62c6.86-10.47,16.64-20.78,26.88-30.02,3.46-3.12,3.1-8.69-.74-11.33-.09-.06-.18-.12-.26-.18-2.03-1.41-4.63-1.71-6.92-.78-45.3,18.25-79.47,52.18-91.97,93.15-.91,2.99,.24,6.25,2.83,8.02,4.22,2.89,8.23,6.26,12.09,10.13,13.29,13.34,24.92,32.86,38.88,65.24l.06,.15c14.11,32.56,23.16,50.61,30.26,60.36,5.34,7.34,7.47,7.34,9.71,7.34h0c.92,0,2.03-.07,3.39-.21l1.33-.14c3.27-.34,5.87-2.83,6.42-6.07,1.07-6.35,3.26-12.58,6.56-18.43,23.98-42.51,85.56-73.46,183.03-91.98l.62-.12c.44-.08,.89-.13,1.33-.13h.67c4.4,0,8.6,2.1,11.24,5.62,2.63,3.52,3.47,8.14,2.23,12.36-1.2,4.06-12.29,40.55-34.72,77.1-.06,.1-.13,.21-.19,.31-4.24,6.89,4.14,14.51,10.6,9.63,34.4-26,55.95-63.23,55.95-104.59,0-59.25-44.22-110.03-107.11-131.44-2.56-.87-5.38-.26-7.36,1.57Z"/>
  <path class="cls-4" d="M840.98,1465.73c31.46,72.6,40.33,79.05,59.69,77.04v.4c-17.34,4.84-43.96,9.28-64.13,9.28-49.61,0-68.97-18.96-83.89-64.13-16.54-50.01-24.6-87.52-47.59-87.52-.04,0-.08,0-.13,0-7.34,.04-13.18,6.23-13.18,13.57v61.45c0,47.19,3.63,72.2,35.09,72.2v.4h-161.74v-.4c43.56,0,43.56-25.01,43.56-72.2v-137.13c0-48.8,0-72.2-43.56-72.2v-.4h161.74v.4c-31.46,0-35.09,25.01-35.09,70.18v59.26c0,2.73,3.34,4.04,5.2,2.04l46.83-50.41c24.6-26.62,45.58-50.82,45.58-66.15,0-10.89-8.07-14.92-29.44-14.92v-.4h118.18v.4c-51.63,0-93.98,39.12-133.51,81.47l-50.28,54.24c19.79-12.11,45.96-15.92,62.78-15.92,40.74,0,60.1,24.2,83.89,79.46h0Z"/>
</svg>