<?xml version="1.0" encoding="UTF-8"?>
<svg xmlns="http://www.w3.org/2000/svg" xmlns:xlink="http://www.w3.org/1999/xlink" viewBox="0 0 1009.52 1458.14">
  <defs>
    <style>
      .cls-1 {
        fill: url(#linear-gradient-2);
      }

      .cls-2 {
        fill: none;
        stroke: #1b1b1b;
        stroke-linejoin: round;
        stroke-width: 4px;
      }

      .cls-3 {
        fill: #89d978;
      }

      .cls-4 {
        fill: #68a95e;
      }

      .cls-5 {
        fill: #ff465e;
      }

      .cls-6 {
        fill: url(#linear-gradient-3);
      }

      .cls-7 {
        fill: url(#linear-gradient);
      }
    </style>
    <linearGradient id="linear-gradient" x1="281.76" y1="606.04" x2="281.76" y2="918.82" gradientUnits="userSpaceOnUse">
      <stop offset="0" stop-color="#ff465e"/>
      <stop offset=".15" stop-color="#ff4b5f"/>
      <stop offset=".34" stop-color="#ff5965"/>
      <stop offset=".54" stop-color="#ff726e"/>
      <stop offset=".76" stop-color="#ff947a"/>
      <stop offset=".98" stop-color="#ffc08a"/>
      <stop offset="1" stop-color="#ffc58c"/>
    </linearGradient>
    <linearGradient id="linear-gradient-2" x1="346.96" y1="794.5" x2="346.96" y2="924.87" xlink:href="#linear-gradient"/>
    <linearGradient id="linear-gradient-3" x1="281.76" y1="185.43" x2="281.76" y2="493.14" xlink:href="#linear-gradient"/>
  </defs>
  <g id="Layer_2" data-name="Layer 2">
    <path class="cls-4" d="M301.82,615.08s16.78,11.33,58.67-40c0,0-50.73-2.09-84,20-48.43,32.15,25.33,20,25.33,20Z"/>
    <path class="cls-3" d="M257.76,615.08s-37.33,1.06-64-30.21c0,0,29.44-11.96,89.33,10.21,54.52,20.18-25.33,20-25.33,20Z"/>
    <path class="cls-3" d="M314.6,614.64c17.16,14.18,41.83,39.85,46.37,67.11,0,0-56-9.08-90.67-55.75-18.25-24.57-2.51-36.37,8.57-32.44,29.56,10.49,27.1,13.95,35.73,21.08Z"/>
    <path class="cls-3" d="M265.7,598.41s-57.9,35.65-81.27,71.33c0,0,43.9-1.78,98.67-35.75,49.4-30.65-17.39-35.59-17.39-35.59Z"/>
    <path class="cls-3" d="M278.88,593.56c36.66,6.1,77.56,60.93,82.1,88.19"/>
    <path class="cls-4" d="M763.24,604.6s16.78,11.33,58.67-40c0,0-50.73-2.09-84,20-48.43,32.15,25.33,20,25.33,20Z"/>
    <path class="cls-3" d="M719.18,604.6s-37.33,1.06-64-30.21c0,0,29.44-11.96,89.33,10.21,54.52,20.18-25.33,20-25.33,20Z"/>
    <path class="cls-3" d="M776.02,604.16c17.16,14.18,41.83,39.85,46.37,67.11,0,0-56-9.08-90.67-55.75-18.25-24.57-2.51-36.37,8.57-32.44,29.56,10.49,27.1,13.95,35.73,21.08Z"/>
    <path class="cls-3" d="M727.12,587.93s-57.9,35.65-81.27,71.33c0,0,43.9-1.78,98.67-35.75,49.4-30.65-17.39-35.59-17.39-35.59Z"/>
    <path class="cls-3" d="M740.3,583.08c36.66,6.1,77.56,60.93,82.1,88.19"/>
    <path class="cls-4" d="M763.24,194.01s16.78,11.33,58.67-40c0,0-50.73-2.09-84,20-48.43,32.15,25.33,20,25.33,20Z"/>
    <path class="cls-3" d="M719.18,194.01s-37.33,1.06-64-30.21c0,0,29.44-11.96,89.33,10.21,54.52,20.18-25.33,20-25.33,20Z"/>
    <path class="cls-3" d="M776.02,193.56c17.16,14.18,41.83,39.85,46.37,67.11,0,0-56-9.08-90.67-55.75-18.25-24.57-2.51-36.37,8.57-32.44,29.56,10.49,27.1,13.95,35.73,21.08Z"/>
    <path class="cls-3" d="M727.12,177.34s-57.9,35.65-81.27,71.33c0,0,43.9-1.78,98.67-35.75,49.4-30.65-17.39-35.59-17.39-35.59Z"/>
    <path class="cls-3" d="M740.3,172.48c36.66,6.1,77.56,60.93,82.1,88.19"/>
    <path class="cls-4" d="M301.82,194.47s16.78,11.33,58.67-40c0,0-50.73-2.09-84,20-48.43,32.15,25.33,20,25.33,20Z"/>
    <path class="cls-3" d="M257.76,194.47s-37.33,1.06-64-30.21c0,0,29.44-11.96,89.33,10.21,54.52,20.18-25.33,20-25.33,20Z"/>
    <path class="cls-3" d="M314.6,194.03c17.16,14.18,41.83,39.85,46.37,67.11,0,0-56-9.08-90.67-55.75-18.25-24.57-2.51-36.37,8.57-32.44,29.56,10.49,27.1,13.95,35.73,21.08Z"/>
    <path class="cls-3" d="M265.7,177.8s-57.9,35.65-81.27,71.33c0,0,43.9-1.78,98.67-35.75,49.4-30.65-17.39-35.59-17.39-35.59Z"/>
    <path class="cls-3" d="M278.88,172.95c36.66,6.1,77.56,60.93,82.1,88.19"/>
    <g>
      <path class="cls-2" d="M360.98,1091.15c-.08-.5-.18-1.02-.29-1.54-2.52-12.94-9.47-25.48-17.89-36.55-7.39-10.56-16.48-21.05-26.36-29.72,9.46-3.9,23.83-14.07,44.05-38.86,0,0-48.35-1.99-81.61,18.48,0,0,0,0,0,0-.07-.02-.14-.04-.2-.06-56.91-19.97-84.91-8.62-84.91-8.62,16.21,19,36.34,26.06,49.65,28.67-18.89,13.7-45.06,34.94-58.98,56.2,0,0,41.73-1.69,94.57-33.26,34.58,37.57,81.98,45.26,81.98,45.26Z"/>
      <path class="cls-2" d="M278.88,1002.96c36.66,6.1,77.56,60.93,82.1,88.19"/>
    </g>
  </g>
  <g id="Layer_3" data-name="Layer 3">
    <g>
      <path class="cls-7" d="M354.05,606.04c-5.32,5.21-10.47,9.64-15.44,13.3,21.75,20.19,34.42,40.28,37.67,59.78l3.67,21.99-22.01-3.57c-2.15-.35-45.52-7.75-81.9-40.96-50.35,27.19-89.17,29.08-90.95,29.16l-31.07,1.26,17.04-26.01c9.84-15.02,24.87-29.76,39.66-42.21-4.41-2.36-8.88-5.2-13.29-8.55-69.06,26.14-116.98,83.36-116.98,149.76,0,75.69,62.27,139.46,147.14,158.85-6.09-13.52-6.33-29.78,2.03-44.6,19.43-34.44,71.69-74.13,201.17-98.74,.2-.04,.37,.14,.31,.33-1.95,6.62-27.81,91.57-83.01,139.9,78.61-22.45,135.03-83.69,135.03-155.73s-53.57-130.15-129.05-153.94Z"/>
      <path class="cls-1" d="M413.13,794.9c.13-.3-.25-.55-.44-.28-7.5,10.19-55.47,96.9-131.91,130.24,.33,0,.66,.01,.99,.01,7.76,0,15.42-.37,22.95-1.07,34.07-18.99,78.2-58.56,108.42-128.9Z"/>
    </g>
    <g>
      <path class="cls-5" d="M874.55,784.42c.13-.3-.25-.55-.44-.28-7.5,10.19-55.47,96.9-131.91,130.24,.33,0,.66,.01,.99,.01,7.76,0,15.42-.37,22.95-1.07,34.07-18.99,78.2-58.56,108.42-128.9Z"/>
      <path class="cls-5" d="M815.47,595.56c-5.32,5.21-10.47,9.64-15.44,13.3,21.75,20.19,34.42,40.28,37.67,59.78l3.67,21.99-22.01-3.57c-2.15-.35-45.52-7.75-81.9-40.96-50.35,27.19-89.17,29.08-90.95,29.16l-31.07,1.26,17.04-26.01c9.84-15.02,24.87-29.76,39.66-42.21-4.41-2.36-8.88-5.2-13.29-8.55-69.06,26.14-116.98,83.36-116.98,149.76,0,75.69,62.27,139.46,147.14,158.85-6.09-13.52-6.33-29.78,2.03-44.6,19.43-34.44,71.69-74.13,201.17-98.74,.2-.04,.37,.14,.31,.33-1.95,6.62-27.81,91.57-83.01,139.9,78.61-22.45,135.03-83.69,135.03-155.73s-53.57-130.15-129.05-153.94Z"/>
    </g>
    <path class="cls-5" d="M815.47,184.96c-5.32,5.21-10.47,9.64-15.44,13.3,21.75,20.19,34.42,40.28,37.67,59.78l3.67,21.99-22.01-3.57c-2.15-.35-45.52-7.75-81.9-40.96-50.35,27.19-89.17,29.08-90.95,29.16l-31.07,1.26,17.04-26.01c9.84-15.02,24.87-29.76,39.66-42.21-4.41-2.36-8.88-5.2-13.29-8.55-69.06,26.14-116.98,83.36-116.98,149.76,0,70.04,53.33,129.88,128.54,153.78-3.85-15.86-1.62-32.64,6.7-47.4,27.79-49.26,99.16-85.13,212.12-106.6l1.48-.28h1.56c5.1,0,9.98,2.44,13.03,6.52,3.05,4.08,4.01,9.44,2.57,14.33-1.38,4.68-14.24,46.97-40.23,89.33-7.4,12.07-15.21,23.06-23.37,32.95,59.95-28.56,100.27-81.74,100.27-142.64,0-70.2-53.57-130.15-129.05-153.94Z"/>
    <path class="cls-3" d="M892.19,354.4c-129.48,24.61-181.74,64.3-201.17,98.74-19.77,35.05,8.54,78.13,48.57,73.96,103.8-10.81,150.27-163.41,152.91-172.38,.06-.19-.11-.37-.31-.33Zm-17.64,19.43c-44.13,102.71-117.93,139.82-146.72,143.04-4.81,.54-8.63-4.93-3.99-6.32,87.1-26.14,142.18-126.03,150.26-137.01,.19-.26,.57-.01,.44,.28Z"/>
    <path class="cls-6" d="M354.05,185.43c-5.32,5.21-10.47,9.64-15.44,13.3,21.75,20.19,34.42,40.28,37.67,59.78l3.67,21.99-22.01-3.57c-2.15-.35-45.52-7.75-81.9-40.96-50.35,27.19-89.17,29.08-90.95,29.16l-31.07,1.26,17.04-26.01c9.84-15.02,24.87-29.76,39.66-42.21-4.41-2.36-8.88-5.2-13.29-8.55-69.06,26.14-116.98,83.36-116.98,149.76,0,70.04,53.33,129.88,128.54,153.78-3.85-15.86-1.62-32.64,6.7-47.4,27.79-49.26,99.16-85.13,212.12-106.6l1.48-.28h1.56c5.1,0,9.97,2.43,13.02,6.51,3.05,4.08,4.02,9.43,2.58,14.32-1.39,4.7-14.25,46.99-40.24,89.36-7.4,12.07-15.21,23.06-23.37,32.95,59.95-28.56,100.27-81.74,100.27-142.64,0-70.2-53.57-130.15-129.05-153.94Z"/>
    <path class="cls-3" d="M430.77,354.86c-129.48,24.61-181.74,64.3-201.17,98.74-19.77,35.05,8.54,78.13,48.57,73.96,103.8-10.81,150.27-163.41,152.91-172.38,.06-.19-.11-.37-.31-.33Zm-17.64,19.43c-44.13,102.71-117.93,139.82-146.72,143.04-4.81,.54-8.63-4.93-3.99-6.32,87.1-26.14,142.18-126.03,150.26-137.01,.19-.26,.57-.01,.44,.28Z"/>
    <path class="cls-2" d="M354.05,1015.44c-5.32,5.21-10.47,9.64-15.44,13.3,21.75,20.19,34.42,40.28,37.67,59.78l3.67,21.99-22.01-3.57c-2.15-.35-45.52-7.75-81.9-40.96-50.35,27.19-89.17,29.08-90.95,29.16l-31.07,1.26,17.04-26.01c9.84-15.02,24.87-29.76,39.66-42.21-4.41-2.36-8.88-5.2-13.29-8.55-69.06,26.14-116.98,83.36-116.98,149.76,0,70.04,53.33,129.88,128.54,153.78-3.85-15.86-1.62-32.64,6.7-47.4,27.79-49.26,99.16-85.13,212.12-106.6l1.48-.28h1.56c5.1,0,9.97,2.43,13.02,6.51,3.05,4.08,4.02,9.43,2.58,14.32-1.39,4.7-14.25,46.99-40.24,89.36-7.4,12.07-15.21,23.06-23.37,32.95,59.95-28.56,100.27-81.74,100.27-142.64,0-70.2-53.57-130.15-129.05-153.94Z"/>
    <path class="cls-2" d="M430.77,1184.88c-129.48,24.61-181.74,64.3-201.17,98.74-19.77,35.05,8.54,78.13,48.57,73.96,103.8-10.81,150.27-163.41,152.91-172.38,.06-.19-.11-.37-.31-.33Zm-17.64,19.43c-44.13,102.71-117.93,139.82-146.72,143.04-4.81,.54-8.63-4.93-3.99-6.32,87.1-26.14,142.18-126.03,150.26-137.01,.19-.26,.57-.01,.44,.28Z"/>
  </g>
</svg>